# xmcd
#
# Track frame offsets:
#	150
#	20060
#	41262
#	57910
#	80525
#	119427
#	142550
#	164145
#	184222
#	197892
#	230282
#	258937
#	277940
#	299188
#	317401
#	330595
#
# Disc length: 4647 seconds
#
# Revision: 1
# Processed by: cddbd v1.4PL0 Copyright (c) Steve Scherf et al.
# Submitted via: audiograbber 1.80
#
DISCID=e6122510
DTITLE=Eric Clapton and B.B. King - Riding With The King and 4 Bonus
DYEAR=1900
DGENRE=
TTITLE0=Riding With The King
TTITLE1=Ten Long Years
TTITLE2=Key To The Highway
TTITLE3=Marry You
TTITLE4=Three O'Clock Blues
TTITLE5=Help The Poor
TTITLE6=I Wanna Be
TTITLE7=Worried Life Blues
TTITLE8=Days Of Old
TTITLE9=When my Heart Beats Like A Hammer
TTITLE10=Hold On I'm Coming
TTITLE11=Come Rain Or Come Shine
TTITLE12=Before You Accuse Me
TTITLE13=The Sky Is Crying
TTITLE14=Give Me Strength
TTITLE15=County Jail Blues
EXTD=
EXTT0=
EXTT1=
EXTT2=
EXTT3=
EXTT4=
EXTT5=
EXTT6=
EXTT7=
EXTT8=
EXTT9=
EXTT10=
EXTT11=
EXTT12=
EXTT13=
EXTT14=
EXTT15=
PLAYORDER=
